<?xml version="1.0" encoding="utf-8"?>
<!-- Generator: Adobe Illustrator 24.0.1, SVG Export Plug-In . SVG Version: 6.00 Build 0)  -->
<svg version="1.1" id="Layer_1" xmlns="http://www.w3.org/2000/svg" xmlns:xlink="http://www.w3.org/1999/xlink" x="0px" y="0px"
	 viewBox="0 0 85 25" style="enable-background:new 0 0 85 25;" xml:space="preserve">
<style type="text/css">
	.st0{fill:#002060;}
	.st1{fill:#6F717A;}
	.st2{fill:#18EE4B;}
</style>
<g>
	<rect x="5.7" y="1" class="st0" width="5.3" height="23.1"/>
	<rect x="13.5" y="13.6" class="st0" width="10" height="10.5"/>
	<g>
		<path class="st0" d="M26.1,1h9.6c4.2,0,6,2.2,6,4.9c0,2.2-1.3,3.5-2.6,4.1c1.7,0.6,3.2,2,3.2,4.4c0,3.6-2.5,5.7-6.8,5.7h-9.5V1z
			 M34.9,8.4c1.9,0,2.5-0.8,2.5-2c0-1.4-1-2-2.5-2h-4.6v4H34.9z M30.3,16.6h4.8c1.6,0,2.9-0.5,2.9-2.4c0-1.5-0.9-2.3-2.8-2.3h-4.9
			V16.6z"/>
		<path class="st0" d="M49.3,4.6h-6.1V1h16.5v3.7h-6.1V20h-4.2V4.6z"/>
		<path class="st0" d="M61.7,20V1h5c4.9,8.2,6.8,11.1,7.9,13.4h0c-0.2-2-0.1-5.6-0.1-8.7V1h3.9v19h-4.7c-1.6-2.8-7.2-12.3-8.2-14.5
			h0c0.1,2.4,0.1,5.1,0.1,8.4v6H61.7z"/>
	</g>
	<g>
		<g>
			<path class="st1" d="M26.1,21.7h1c0.5,0,0.8,0.3,0.8,0.6c0,0.3-0.1,0.4-0.3,0.5c0.2,0.1,0.4,0.2,0.4,0.5c0,0.4-0.3,0.7-0.8,0.7
				h-1V21.7z M27.1,22.7c0.3,0,0.4-0.1,0.4-0.3c0-0.2-0.1-0.3-0.4-0.3h-0.5v0.6H27.1z M26.6,23.7h0.5c0.3,0,0.4-0.1,0.4-0.4
				c0-0.2-0.1-0.3-0.5-0.3h-0.5V23.7z"/>
			<path class="st1" d="M29,23.5l-0.2,0.6h-0.4l0.8-2.3h0.6l0.9,2.3h-0.5l-0.2-0.6H29z M29.8,23.1c-0.2-0.5-0.3-0.9-0.4-1.1h0
				c-0.1,0.2-0.2,0.6-0.3,1.1H29.8z"/>
			<path class="st1" d="M31.5,23.1v1h-0.4v-2.3h1c0.5,0,0.8,0.3,0.8,0.6c0,0.3-0.2,0.5-0.4,0.6c0.1,0,0.3,0.2,0.3,0.6v0.1
				c0,0.2,0,0.3,0,0.5h-0.4c0-0.1,0-0.3,0-0.5v0c0-0.3-0.1-0.4-0.5-0.4H31.5z M31.5,22.8H32c0.3,0,0.4-0.1,0.4-0.3
				c0-0.2-0.1-0.3-0.4-0.3h-0.5V22.8z"/>
			<path class="st1" d="M34,23.5l-0.2,0.6h-0.4l0.8-2.3h0.6l0.9,2.3h-0.5l-0.2-0.6H34z M34.8,23.1c-0.2-0.5-0.3-0.9-0.4-1.1h0
				c-0.1,0.2-0.2,0.6-0.3,1.1H34.8z"/>
			<path class="st1" d="M36,24.1v-2.3h0.6c0.3,0.5,0.9,1.6,1,1.8h0c0-0.3,0-0.7,0-1v-0.8H38v2.3h-0.5c-0.3-0.5-0.9-1.6-1.1-1.9h0
				c0,0.2,0,0.7,0,1.1v0.8H36z"/>
			<path class="st1" d="M40.3,22.1h-0.7v-0.4h1.9v0.4h-0.7v2h-0.4V22.1z"/>
			<path class="st1" d="M43.6,23h-1.2v0.7h1.3l-0.1,0.4H42v-2.3h1.6v0.4h-1.2v0.6h1.2V23z"/>
			<path class="st1" d="M44.2,21.7h0.4v2h1.2l-0.1,0.4h-1.6V21.7z"/>
			<path class="st1" d="M48,23h-1.2v0.7h1.3L48,24.1h-1.6v-2.3H48v0.4h-1.2v0.6H48V23z"/>
			<path class="st1" d="M50.6,23.4c-0.1,0.4-0.4,0.7-1,0.7c-0.7,0-1.1-0.5-1.1-1.2c0-0.6,0.4-1.2,1.1-1.2c0.6,0,0.9,0.3,1,0.7h-0.4
				c-0.1-0.2-0.2-0.4-0.5-0.4c-0.5,0-0.6,0.4-0.6,0.9c0,0.4,0.2,0.9,0.7,0.9c0.3,0,0.5-0.2,0.5-0.4H50.6z"/>
			<path class="st1" d="M53.4,22.9c0,0.7-0.4,1.2-1.1,1.2c-0.7,0-1.1-0.5-1.1-1.2c0-0.7,0.4-1.2,1.2-1.2
				C53,21.7,53.4,22.2,53.4,22.9z M51.6,22.9c0,0.5,0.2,0.9,0.7,0.9c0.5,0,0.7-0.4,0.7-0.8c0-0.5-0.2-0.8-0.7-0.8
				C51.8,22.1,51.6,22.4,51.6,22.9z"/>
			<path class="st1" d="M56,23.2c0-0.4,0-0.9,0-1.1h0c-0.1,0.4-0.4,1.3-0.6,2H55c-0.2-0.6-0.5-1.6-0.6-2h0c0,0.3,0,0.8,0,1.2v0.9H54
				v-2.3h0.7c0.2,0.7,0.5,1.5,0.5,1.8h0c0.1-0.3,0.4-1.2,0.6-1.8h0.6v2.3H56V23.2z"/>
			<path class="st1" d="M58.2,24.1v-2.3h0.6c0.3,0.5,0.9,1.6,1,1.8h0c0-0.3,0-0.7,0-1v-0.8h0.4v2.3h-0.5c-0.3-0.5-0.9-1.6-1.1-1.9h0
				c0,0.2,0,0.7,0,1.1v0.8H58.2z"/>
			<path class="st1" d="M62.6,23h-1.2v0.7h1.3l-0.1,0.4H61v-2.3h1.6v0.4h-1.2v0.6h1.2V23z"/>
			<path class="st1" d="M63.8,22.1h-0.7v-0.4H65v0.4h-0.7v2h-0.4V22.1z"/>
			<path class="st1" d="M66,24.1l-0.6-2.3h0.5c0.2,1,0.4,1.6,0.4,1.9h0c0.1-0.4,0.3-1.3,0.5-1.9h0.4c0.1,0.5,0.4,1.5,0.5,1.9h0
				c0.1-0.5,0.3-1.5,0.4-1.9h0.4l-0.7,2.3h-0.5c-0.1-0.5-0.4-1.4-0.4-1.8h0c-0.1,0.4-0.3,1.3-0.5,1.8H66z"/>
			<path class="st1" d="M71.2,22.9c0,0.7-0.4,1.2-1.1,1.2c-0.7,0-1.1-0.5-1.1-1.2c0-0.7,0.4-1.2,1.2-1.2
				C70.7,21.7,71.2,22.2,71.2,22.9z M69.4,22.9c0,0.5,0.2,0.9,0.7,0.9c0.5,0,0.7-0.4,0.7-0.8c0-0.5-0.2-0.8-0.7-0.8
				C69.6,22.1,69.4,22.4,69.4,22.9z"/>
			<path class="st1" d="M72.3,23.1v1h-0.4v-2.3h1c0.5,0,0.8,0.3,0.8,0.6c0,0.3-0.2,0.5-0.4,0.6c0.1,0,0.3,0.2,0.3,0.6v0.1
				c0,0.2,0,0.3,0,0.5h-0.4c0-0.1,0-0.3,0-0.5v0c0-0.3-0.1-0.4-0.5-0.4H72.3z M72.3,22.8h0.5c0.3,0,0.4-0.1,0.4-0.3
				c0-0.2-0.1-0.3-0.4-0.3h-0.5V22.8z"/>
			<path class="st1" d="M74.3,21.7h0.4v1.1c0.2-0.2,0.7-0.7,1-1.1h0.5l-1,1l1,1.4h-0.5L75,23l-0.3,0.2v0.8h-0.4V21.7z"/>
			<path class="st1" d="M77,23.4c0.1,0.3,0.2,0.4,0.5,0.4c0.3,0,0.4-0.1,0.4-0.3c0-0.2-0.1-0.3-0.5-0.4c-0.6-0.1-0.8-0.4-0.8-0.7
				c0-0.4,0.3-0.7,0.8-0.7c0.6,0,0.9,0.3,0.9,0.7h-0.4c0-0.2-0.1-0.3-0.4-0.3c-0.2,0-0.4,0.1-0.4,0.3c0,0.2,0.1,0.3,0.5,0.3
				c0.7,0.2,0.8,0.4,0.8,0.7c0,0.4-0.3,0.7-0.9,0.7c-0.6,0-0.9-0.3-1-0.7H77z"/>
		</g>
	</g>
	<path class="st2" d="M13.5,1V11h10V1H13.5z M21.9,9.3h-6.7V2.6h6.7V9.3z"/>
</g>
</svg>
